<?xml version="1.0" standalone="no"?>
<!DOCTYPE svg PUBLIC "-//W3C//DTD SVG 20010904//EN"
 "http://www.w3.org/TR/2001/REC-SVG-20010904/DTD/svg10.dtd">
<svg version="1.0" xmlns="http://www.w3.org/2000/svg"
 width="2047.000000pt" height="578.000000pt" viewBox="0 0 2047.000000 578.000000"
 preserveAspectRatio="xMidYMid meet">

<g transform="translate(0.000000,578.000000) scale(0.100000,-0.100000)"
fill="#000000" stroke="none">
<path d="M4966 4144 c-336 -85 -612 -157 -615 -160 -3 -3 -7 -55 -9 -115 l-4
-109 33 0 c73 0 79 6 79 71 0 52 3 61 23 69 12 5 266 71 564 146 l542 137 328
-82 c180 -45 435 -109 566 -143 l237 -61 0 -62 c0 -62 0 -63 31 -69 17 -3 45
-6 61 -6 l29 0 -7 113 c-4 61 -7 113 -8 114 -2 2 -1234 313 -1238 312 -2 0
-277 -70 -612 -155z"/>
<path d="M5494 3848 c-59 -55 -63 -141 -8 -200 l29 -31 -58 6 c-77 7 -134 42
-198 120 -53 64 -115 107 -156 107 -13 0 -97 -25 -186 -55 -203 -68 -348 -94
-577 -103 -158 -6 -175 -9 -178 -25 -5 -26 23 -53 74 -73 37 -14 65 -16 167
-10 67 3 138 8 157 11 19 2 8 -2 -25 -10 -33 -8 -106 -17 -162 -21 -100 -7
-114 -13 -95 -40 32 -46 104 -55 223 -28 39 9 73 14 76 11 2 -3 -31 -13 -74
-22 -120 -27 -138 -42 -83 -70 39 -20 75 -19 151 5 35 10 65 18 67 16 2 -2
-21 -12 -50 -21 -68 -22 -78 -32 -53 -51 14 -11 39 -14 82 -12 49 2 59 0 51
-10 -15 -18 -5 -24 50 -30 34 -3 59 1 83 13 l34 18 -18 -21 c-18 -20 -18 -21
3 -32 29 -16 78 -5 108 23 l25 22 -13 -24 c-10 -19 -10 -25 1 -32 18 -11 40
-11 58 0 9 6 21 5 33 -2 15 -10 25 -8 48 5 17 9 30 13 30 9 0 -19 30 -19 54 0
15 12 27 15 31 9 11 -18 43 -11 50 11 5 15 10 18 18 10 18 -18 47 -12 56 11 5
14 10 17 15 10 10 -17 41 -15 56 3 7 8 24 15 38 15 15 0 39 13 57 30 l32 31 6
-128 c9 -176 9 -293 -1 -293 -16 0 -118 37 -159 58 -111 57 -96 141 25 142 84
0 130 49 80 84 -35 25 -78 19 -148 -22 -88 -51 -113 -89 -108 -164 3 -44 10
-64 29 -84 27 -29 129 -84 156 -84 17 0 202 75 231 93 9 6 12 55 12 185 0 97
4 183 9 190 6 10 15 8 38 -12 17 -14 42 -26 56 -26 14 0 27 -7 31 -15 6 -18
56 -20 56 -3 0 7 7 2 16 -10 16 -24 50 -30 56 -10 3 8 9 4 17 -10 12 -22 51
-31 51 -12 0 6 13 1 29 -11 32 -23 51 -19 51 11 0 17 2 17 25 -5 25 -26 61
-33 67 -14 2 7 12 7 30 -2 38 -17 62 -5 54 26 -7 26 -7 26 13 6 40 -40 128
-40 118 -1 -4 16 -2 18 13 10 25 -13 96 -13 122 1 20 11 20 13 5 24 -15 11
-10 12 27 8 89 -10 148 18 99 46 -13 7 -4 9 32 5 28 -3 62 -1 78 5 26 10 45
36 34 47 -2 3 -44 14 -92 26 -102 24 -110 34 -9 13 101 -21 155 -19 195 8 57
39 46 51 -54 59 -99 7 -231 28 -224 34 3 3 33 0 68 -6 92 -14 243 -13 282 4
42 18 81 61 74 80 -5 13 -27 16 -127 16 -228 0 -457 39 -645 109 -191 72 -218
68 -324 -49 -80 -89 -127 -118 -203 -127 l-50 -6 31 43 c49 68 39 149 -25 199
-20 15 -41 21 -80 21 -47 0 -59 -4 -90 -32z m1091 -428 c13 -6 15 -9 5 -9 -8
0 -22 4 -30 9 -18 12 -2 12 25 0z m-254 -77 c13 -16 12 -17 -3 -4 -10 7 -18
15 -18 17 0 8 8 3 21 -13z"/>
<path d="M8189 3410 c-112 -19 -217 -98 -266 -199 -25 -50 -28 -67 -28 -156 0
-89 3 -106 28 -157 36 -73 119 -149 195 -179 43 -17 78 -23 142 -23 75 0 93 4
152 31 81 38 141 97 177 172 23 49 26 69 26 156 0 89 -3 106 -28 157 -70 142
-238 226 -398 198z m184 -170 c85 -58 115 -203 64 -301 -52 -99 -189 -135
-289 -76 -139 81 -128 326 17 393 49 23 164 14 208 -16z"/>
<path d="M9719 3410 c-214 -37 -345 -250 -283 -460 64 -215 308 -318 520 -218
63 29 125 92 160 160 39 75 46 207 15 290 -62 163 -235 259 -412 228z m167
-160 c79 -39 119 -134 102 -244 -16 -105 -93 -169 -203 -169 -123 0 -205 87
-205 218 0 91 45 170 115 201 46 21 142 17 191 -6z"/>
<path d="M7200 3050 l0 -351 78 3 77 3 3 148 3 147 134 0 134 0 3 -147 3 -148
78 -3 77 -3 0 351 0 350 -80 0 -80 0 0 -135 0 -135 -135 0 -135 0 0 135 0 135
-80 0 -80 0 0 -350z"/>
<path d="M8722 3053 l3 -348 75 0 75 0 3 208 2 208 163 -208 162 -208 58 -3
57 -3 0 351 0 350 -80 0 -80 0 -2 -205 -3 -205 -160 205 -160 205 -58 0 -57 0
2 -347z"/>
<path d="M10252 3053 l3 -348 78 -3 77 -3 0 146 c0 84 4 145 9 145 6 0 49 -55
97 -122 128 -180 113 -168 212 -168 68 0 83 3 79 14 -3 8 -51 73 -107 146 -56
72 -100 133 -98 134 1 1 22 10 45 20 48 21 97 69 112 109 30 78 2 183 -61 230
-55 41 -91 47 -275 47 l-173 0 2 -347z m335 207 c41 -38 42 -92 1 -130 -18
-17 -35 -20 -100 -20 l-78 0 0 85 0 85 78 0 c64 0 82 -4 99 -20z"/>
<path d="M12503 3386 c-91 -29 -166 -97 -210 -191 -23 -51 -28 -73 -27 -145 0
-72 4 -95 28 -146 80 -176 283 -256 455 -179 79 36 151 112 181 193 27 70 29
179 6 249 -33 98 -135 195 -236 223 -48 14 -147 11 -197 -4z m191 -88 c101
-30 174 -155 163 -278 -22 -249 -339 -326 -464 -113 -25 43 -28 57 -28 138 0
100 15 143 69 197 62 63 163 84 260 56z"/>
<path d="M16017 3390 c-44 -13 -98 -59 -113 -96 -8 -18 -14 -54 -14 -79 0 -99
42 -144 189 -201 102 -40 141 -75 141 -128 0 -112 -175 -144 -279 -51 l-38 34
-26 -27 c-15 -16 -27 -33 -27 -39 0 -16 71 -70 117 -89 52 -22 176 -22 228 0
80 34 118 91 118 176 0 102 -49 156 -191 210 -140 53 -178 115 -112 182 29 29
34 30 99 26 56 -3 75 -9 105 -32 l38 -28 29 28 29 28 -23 24 c-38 42 -115 72
-182 71 -33 0 -73 -5 -88 -9z"/>
<path d="M11102 3048 l3 -343 45 0 45 0 3 133 3 132 90 0 c115 0 168 14 218
56 103 89 91 257 -24 329 -48 30 -49 30 -217 33 l-168 3 2 -343z m329 239 c23
-15 38 -37 48 -65 12 -38 11 -48 -4 -89 -24 -63 -69 -82 -187 -83 l-88 0 0
130 0 130 99 0 c85 0 102 -3 132 -23z"/>
<path d="M11700 3044 l0 -345 43 3 42 3 3 148 3 147 32 0 c29 -1 43 -14 152
-150 l119 -150 53 0 c29 0 53 3 53 8 0 4 -52 70 -115 147 -63 77 -115 143
-115 146 0 4 19 9 41 12 49 6 107 49 131 98 11 20 18 56 18 88 0 78 -35 135
-103 167 -48 22 -65 24 -204 24 l-153 0 0 -346z m321 243 c61 -41 64 -138 6
-181 -24 -17 -46 -22 -133 -24 l-104 -4 0 116 0 116 99 0 c85 0 102 -3 132
-23z"/>
<path d="M13000 3385 c0 -3 61 -158 136 -345 133 -332 137 -340 164 -340 15 0
32 6 37 13 7 9 238 576 269 660 5 15 0 17 -43 17 l-50 0 -98 -252 c-54 -139
-101 -259 -105 -266 -4 -8 -50 99 -110 252 l-104 266 -48 0 c-26 0 -48 -2 -48
-5z"/>
<path d="M13730 3045 l0 -345 45 0 45 0 0 345 0 345 -45 0 -45 0 0 -345z"/>
<path d="M13982 3048 l3 -343 165 1 c144 1 172 4 221 23 79 30 142 88 181 168
28 57 32 75 32 147 -1 146 -67 256 -192 314 -54 26 -66 27 -235 30 l-177 4 2
-344z m318 251 c64 -14 127 -61 160 -119 21 -38 25 -58 25 -130 0 -94 -18
-141 -72 -192 -54 -52 -107 -68 -225 -68 l-108 0 0 260 0 260 85 0 c46 0 107
-5 135 -11z"/>
<path d="M14720 3045 l0 -345 225 0 225 0 0 45 0 45 -180 0 -180 0 0 115 0
115 165 0 165 0 0 40 0 40 -165 0 -165 0 0 105 0 105 180 0 180 0 0 40 0 40
-225 0 -225 0 0 -345z"/>
<path d="M15300 3045 l0 -345 45 0 45 0 0 150 0 150 34 0 c32 0 42 -10 156
-150 l121 -150 55 0 c29 0 54 3 54 6 0 3 -52 68 -115 145 -63 76 -115 143
-115 148 0 4 17 11 38 15 114 18 182 145 137 254 -21 49 -52 81 -100 103 -33
16 -66 19 -197 19 l-158 0 0 -345z m319 250 c63 -32 75 -128 24 -179 -31 -31
-65 -38 -168 -34 l-80 3 -3 113 -3 112 101 0 c69 0 110 -5 129 -15z"/>
<path d="M4355 3308 c82 -787 439 -1385 990 -1660 50 -25 123 -56 163 -69 65
-21 77 -22 120 -10 90 24 234 94 350 171 402 267 671 703 788 1278 22 109 54
342 48 350 -1 2 -19 -6 -40 -17 -21 -12 -46 -21 -56 -21 -12 0 -18 -12 -23
-47 -60 -443 -163 -739 -356 -1029 -166 -247 -454 -478 -708 -565 l-53 -19
-67 27 c-210 83 -411 226 -564 400 -244 279 -412 685 -469 1136 -9 77 -15 97
-28 97 -9 0 -33 9 -55 20 -22 11 -41 20 -43 20 -2 0 -1 -28 3 -62z"/>
<path d="M5698 3280 c-16 -12 -28 -26 -28 -31 0 -19 66 -49 108 -49 103 0 137
-65 62 -119 -22 -16 -93 -48 -157 -71 -237 -86 -309 -124 -338 -180 -20 -39
-19 -98 4 -140 21 -41 94 -100 123 -100 25 0 136 68 149 91 5 10 9 49 9 88 0
39 3 71 6 71 18 0 83 -45 92 -64 21 -47 -13 -81 -184 -181 -117 -69 -144 -100
-144 -165 0 -41 5 -54 34 -84 18 -20 41 -36 51 -36 25 0 122 57 129 76 3 9 6
38 6 65 0 27 3 49 8 49 18 0 62 -53 62 -75 0 -26 -26 -49 -127 -109 -75 -44
-103 -78 -103 -121 0 -34 32 -85 54 -85 7 0 31 14 54 31 35 26 42 36 42 66 0
30 -3 34 -22 31 -19 -2 -24 -11 -28 -52 l-5 -48 -24 19 c-19 15 -23 25 -17 46
5 21 25 36 99 72 50 25 99 51 107 58 53 42 65 112 28 167 -38 54 -46 56 -123
19 l-70 -34 -3 -62 c-3 -71 -16 -80 -57 -38 -49 48 -28 76 122 156 148 78 177
100 202 153 27 54 26 89 0 136 -37 65 -52 67 -171 28 l-103 -35 -3 -86 c-1
-48 -7 -87 -11 -87 -5 0 -30 19 -57 43 -40 37 -46 47 -41 69 10 40 47 60 222
123 251 90 294 120 302 214 6 66 -20 107 -98 155 -80 49 -124 56 -161 26z"/>
<path d="M5410 3130 c-19 -4 -32 -8 -29 -9 4 0 23 -8 43 -16 36 -15 36 -15 36
10 0 14 -3 24 -7 24 -5 -1 -24 -5 -43 -9z"/>
<path d="M5710 3116 c0 -24 2 -25 28 -14 39 17 49 28 25 28 -12 0 -28 3 -37 6
-12 5 -16 0 -16 -20z"/>
<path d="M5633 2259 c-9 -9 -6 -19 9 -40 26 -34 21 -42 -62 -100 -76 -53 -98
-102 -65 -145 14 -18 14 -17 9 12 -7 35 10 52 109 113 75 46 97 99 61 149 -16
24 -43 29 -61 11z"/>
<path d="M5623 2063 c-9 -3 -6 -13 9 -33 11 -16 18 -36 15 -44 -4 -9 -4 -16
-1 -16 13 0 23 52 14 75 -10 25 -15 28 -37 18z"/>
<path d="M5572 2038 c-17 -21 -3 -278 15 -278 10 0 13 28 15 130 0 72 1 135 2
142 1 17 -19 21 -32 6z"/>
</g>
</svg>
