<svg width="195" height="31.3829836682761" viewBox="0 0 195 31.3829836682761" class="css-1j8o68f"><defs id="SvgjsDefs2669"></defs><g id="SvgjsG2670" featurekey="symbolFeature-0" transform="matrix(0.5604104226477875,0,0,0.5604104226477875,9.576766041189773,-2.24164169059115)" fill="#ffffff"><g xmlns="http://www.w3.org/2000/svg"><polygon points="30.3,45.9 30.3,37.2 38.9,37.2 38.9,30.6 30.3,30.6 30.3,21.9 23.4,21.9 23.4,30.6 14.9,30.6 14.9,37.4 23.6,37.4    23.6,45.9  "></polygon><path d="M61.4,6.9c-0.9-0.8-2-1.4-3-1.9c-0.1-0.1-0.2-0.1-0.3-0.2C57.5,4.4,56.7,4,56,4c-0.4,0-0.7,0.1-1,0.3   c-0.8,0.6-1.2,1.3-1.2,2.1C53.9,7,54.3,7.6,55.1,8c0.3,0.1,0.5,0.2,0.8,0.2c0.4,0,0.8-0.1,1.1-0.3c0.3-0.1,0.5-0.2,0.8-0.2   c0.7,0,1.5,0.9,2.2,2.4c0.9,2.1-0.1,4.6-1,6.8c-0.2,0.5-0.4,1-0.6,1.5c-0.8,2.1-1.6,4.3-2.4,6.4c-0.6,0.3-1,0.8-1.1,1.5   c-0.7,4.5-3,4.9-3.7,4.9c0,0-0.1,0-0.1,0l-0.1,0c-1.1,0-2-0.8-2.7-2.2L48,28.5c-0.5-1.1-0.7-2.1-0.7-2.2c-0.1-0.6-0.4-1-0.9-1.3   c0-0.1-0.1-0.3-0.2-0.4c-1.1-3.1-2.6-7.2-3.9-11.3c-0.6-1.9-0.1-3.6,1.4-5c0.4-0.3,0.8-0.6,1.2-0.5c0.2,0,0.3,0.1,0.5,0.2   c0.3,0.1,0.6,0.3,1,0.3h0.1c1.2,0,2.4-0.8,2.4-2.1c0-0.6-0.2-1.1-0.6-1.5c-0.4-0.4-0.9-0.6-1.6-0.5c-0.6,0-1.1,0.2-1.6,0.4   c-0.3,0.1-0.6,0.2-0.9,0.3c-1.7,0.4-3.1,1.6-4,3.2c-1,1.9-1.3,4.2-0.6,6.3c1.2,3.7,2.5,7.6,3.8,11.6c-0.1,0.3-0.2,0.7-0.1,1.1   c0.2,1.1,0.5,2.1,0.9,3.1c0.7,1.6,1.8,3.2,3.4,4.2c0.4,0.2,0.8,0.4,1.2,0.6l0.4,0c0,0.7-0.1,1.4-0.2,2.1C48.7,41,47,44.8,44.5,48   c-5,6.2-12.7,9.3-20.5,8.2c-2.4-0.3-4.7-1-6.8-2l-1-0.5l-0.6,0.1L14.6,54c-0.9,0.3-1.7,0.5-2.6,0.6c-0.3,0.1-0.6,0.1-0.9,0.1   l-0.5,0.1c-1.4,0.2-3,0.2-4.8-0.1l-0.2,0c-0.3,0-0.5-0.1-0.7-0.1l2.8-2.8c0.3-0.3,0.5-0.5,0.7-0.7l1.7-2L8.6,47   c-3.3-4.7-4.8-10.4-4-16.1c0.5-4.1,2.2-7.9,4.8-11.1c3.9-4.8,9.2-7.7,15.2-8.3c0.7,1.4,2.2,2.5,3.9,2.5c2.4,0,4.3-1.9,4.3-4.3   c0-2.4-1.9-4.3-4.3-4.3c-1.8,0-3.3,1.1-4,2.6c-7.1,0.6-13.5,4-18,9.7c-3,3.7-4.9,8.2-5.5,12.9c-0.9,6.5,0.7,13.1,4.5,18.5   c-0.1,0.1-0.2,0.2-0.3,0.3L2,52.5c-0.9,0.9-1.2,2.1-0.9,3.2c0.5,1.4,1.8,2.3,4.1,2.6l0.2,0c2.1,0.3,4,0.3,5.7,0.1l0.4-0.1   c0.3,0,0.7-0.1,1.1-0.1c1-0.2,1.9-0.4,2.9-0.7l0,0c2.4,1.2,5.1,2,7.8,2.3C24.6,60,25.8,60,27,60c7.8,0,15.2-3.5,20.3-9.8   c3-3.7,4.9-8.2,5.5-12.9c0.1-0.9,0.2-1.7,0.2-2.6c1.4-0.3,2.8-1.4,3.6-2.5c1.2-1.5,1.8-3.5,2.2-5.4c0-0.3,0-0.6,0-0.8   c0.1-0.4,0.3-0.8,0.4-1.3c0.5-1.5,1.1-3.1,1.6-4.6c0.6-1.8,1.3-3.6,1.9-5.5c0.3-0.8,0.5-1.8,0.5-2.8C63.3,9.8,62.6,8,61.4,6.9z"></path></g></g><g id="SvgjsG2671" featurekey="nameFeature-0" transform="matrix(0.7187425139474608,0,0,0.7187425139474608,52.374648914417605,-2.1870659656261617)" fill="#ffffff"><path d="M15.391 11.777000000000001 c5.5273 0 8.9648 4.1016 8.9648 9.1211 c0 5.1367 -3.4375 8.9844 -8.9648 8.9844 l-5.8789 0 l0 10.117 l-5.8594 0 l0 -28.223 l11.738 0 z M14.414 24.98 c2.9297 0 4.2969 -1.6211 4.2969 -4.1602 c0 -2.4414 -1.3672 -4.1406 -4.2969 -4.1406 l-4.9023 0 l0 8.3008 l4.9023 0 z M40.684 19.531 c4.4922 0 7.1875 2.5 7.1875 7.5195 l0 12.949 l-5.6445 0 l0 -12.031 c0 -2.9492 -1.6406 -3.9258 -3.6523 -3.9258 c-2.0898 0 -4.375 1.0352 -4.4141 4.8828 l0 11.074 l-5.625 0 l0 -30 l5.625 0 l0 12.324 c1.4258 -1.7383 3.6719 -2.793 6.5234 -2.793 z M62.63709375 40.39063 c-6.3867 0 -10.996 -3.8867 -10.996 -10.449 c0 -6.5234 4.5703 -10.41 10.996 -10.41 c6.4648 0 11.016 3.8867 11.016 10.41 c0 6.5625 -4.5703 10.449 -11.016 10.449 z M62.57809375 35.918 c3.2617 0 5.4883 -2.3828 5.4883 -5.9766 s-2.2266 -5.9766 -5.4883 -5.9766 c-3.1445 0 -5.3516 2.3828 -5.3516 5.9766 s2.207 5.9766 5.3516 5.9766 z M89.687875 19.531 c4.8242 0 7.4805 2.5 7.4805 6.9531 l0 13.516 l-5.6445 0 l0 -12.305 c0 -2.6758 -1.6602 -3.6523 -3.5938 -3.6523 c-2.3242 0 -4.4336 1.1719 -4.4727 4.8828 l0 11.074 l-5.625 0 l0 -20.078 l5.625 0 l0 2.2266 c1.4063 -1.6602 3.5742 -2.6172 6.2305 -2.6172 z M121.50403125 29.668 l-0.058594 1.3477 l-14.883 0 c0.23438 3.3398 2.4609 4.9414 5.1367 4.9414 c2.0117 0 3.5742 -0.9375 4.3359 -2.7148 l5.1563 0.76172 c-1.3281 4.0625 -4.9414 6.3867 -9.4531 6.3867 c-6.4844 0 -10.723 -3.8281 -10.723 -10.43 s4.3555 -10.469 10.547 -10.469 c5.6836 0 9.9219 3.1445 9.9414 10.176 z M111.60203125 23.477 c-2.5586 0 -4.3359 1.1914 -4.8828 3.8672 l9.2188 0 c-0.29297 -2.5586 -2.0313 -3.8672 -4.3359 -3.8672 z M126.52339375 40 l0 -28.223 l10.215 0 c9.0039 0 13.457 5.6641 13.457 14.102 c0 8.457 -4.4531 14.121 -13.457 14.121 l-10.215 0 z M132.38279375 34.8242 l4.0625 0 c5.1953 0 7.5781 -3.2422 7.5781 -8.9453 s-2.3828 -8.9453 -7.5781 -8.9453 l-4.0625 0 l0 17.891 z M164.29725 40.39063 c-6.3867 0 -10.996 -3.8867 -10.996 -10.449 c0 -6.5234 4.5703 -10.41 10.996 -10.41 c6.4648 0 11.016 3.8867 11.016 10.41 c0 6.5625 -4.5703 10.449 -11.016 10.449 z M164.23825 35.918 c3.2617 0 5.4883 -2.3828 5.4883 -5.9766 s-2.2266 -5.9766 -5.4883 -5.9766 c-3.1445 0 -5.3516 2.3828 -5.3516 5.9766 s2.207 5.9766 5.3516 5.9766 z M188.57403125 40.37109 c-6.3086 0 -10.762 -4.1992 -10.762 -10.43 c0 -6.25 4.4531 -10.41 10.762 -10.41 c5.0781 0 8.8867 2.6367 9.8633 7.3828 l-5.1953 0.56641 c-0.625 -2.4023 -2.3633 -3.5156 -4.7266 -3.5156 c-3.0273 0 -5.0781 2.3828 -5.0781 5.9766 c0 3.5742 2.0508 5.9766 5.0781 5.9766 c2.3633 0 4.1016 -1.1328 4.7266 -3.5156 l5.1953 0.56641 c-0.97656 4.7461 -4.8828 7.4023 -9.8633 7.4023 z"></path></g></svg>